<?xml version="1.0" standalone="no"?>
<!DOCTYPE svg PUBLIC "-//W3C//DTD SVG 20010904//EN"
 "http://www.w3.org/TR/2001/REC-SVG-20010904/DTD/svg10.dtd">
<svg version="1.0" xmlns="http://www.w3.org/2000/svg"
 width="512.000000pt" height="512.000000pt" viewBox="0 0 512.000000 512.000000"
 preserveAspectRatio="xMidYMid meet">
<metadata>
Created by potrace 1.11, written by Peter Selinger 2001-2013
</metadata>
<g transform="translate(0.000000,512.000000) scale(0.100000,-0.100000)"
fill="#000000" stroke="none">
<path d="M655 4869 c-217 -46 -390 -162 -503 -339 -40 -61 -88 -170 -96 -215
-3 -17 -10 -53 -15 -82 -14 -70 -7 -203 14 -288 46 -184 135 -311 330 -471 33
-27 62 -51 65 -54 3 -3 59 -50 125 -106 66 -55 221 -185 345 -289 124 -104
322 -270 440 -369 118 -99 217 -182 220 -185 3 -4 43 -38 90 -76 47 -38 87
-72 90 -75 3 -3 32 -28 65 -55 33 -28 71 -60 85 -72 297 -256 421 -316 650
-317 111 0 142 4 230 30 173 51 341 185 434 345 28 49 78 169 70 169 -3 0 0 8
5 18 21 40 31 219 17 307 -21 124 -80 259 -154 351 -52 64 -98 105 -402 360
-58 48 -110 92 -117 98 -7 6 -18 16 -25 22 -7 5 -58 48 -114 95 -55 46 -181
151 -280 234 -98 82 -181 152 -184 155 -3 3 -88 75 -190 159 -102 85 -189 159
-195 165 -5 6 -37 33 -69 59 -33 26 -82 68 -110 92 -282 242 -381 301 -556
333 -66 12 -210 12 -265 1z"/>
<path d="M4213 4869 c-113 -18 -296 -111 -388 -196 -17 -15 -113 -98 -215
-182 -102 -85 -187 -157 -190 -160 -3 -4 -26 -23 -52 -44 -26 -21 -53 -43 -60
-50 -7 -7 -96 -82 -198 -167 -102 -84 -201 -167 -220 -184 -20 -17 -58 -49
-85 -71 -98 -80 -105 -58 67 -202 84 -70 155 -130 158 -133 6 -6 60 -51 124
-104 239 -197 368 -472 360 -772 -2 -54 -7 -118 -12 -141 -7 -31 -7 -41 1 -36
11 7 243 200 302 251 17 15 71 60 120 101 50 42 95 80 101 86 6 5 33 28 60 50
45 37 201 168 304 255 25 21 146 123 270 228 270 226 324 287 385 432 165 393
-26 843 -426 1000 -27 11 -59 22 -71 24 -101 20 -131 24 -202 23 -45 0 -105
-4 -133 -8z"/>
<path d="M0 2244 c1 -852 5 -1318 11 -1354 56 -293 287 -537 584 -616 95 -26
284 -26 375 -1 182 50 351 168 447 312 14 22 34 52 45 67 10 15 18 31 18 36 0
4 8 26 19 48 10 21 27 71 36 109 17 64 19 131 20 735 1 591 -1 667 -14 680 -9
9 -54 47 -101 85 -47 38 -87 72 -90 75 -3 3 -41 35 -85 70 -44 36 -82 68 -85
71 -3 3 -71 59 -151 125 -201 165 -549 452 -579 478 -14 11 -61 50 -105 85
-44 35 -84 69 -90 75 -5 6 -32 29 -60 51 -27 22 -63 51 -79 65 -16 14 -34 30
-40 35 -7 6 -26 23 -44 39 l-32 30 0 -1300z"/>
<path d="M5086 3521 c-11 -12 -119 -104 -240 -204 -259 -213 -873 -720 -1031
-852 -60 -50 -144 -119 -185 -153 l-76 -63 1 -662 c2 -727 1 -723 64 -861 82
-182 241 -334 433 -414 101 -42 195 -60 308 -59 352 2 655 252 736 607 8 34
17 1995 12 2454 -3 227 -3 228 -22 207z"/>
</g>
</svg>
